{
    "asset" : {
        "generator" : "Khronos glTF Blender I/O v0.9.36",
        "version" : "2.0"
    },
    "scene" : 0,
    "scenes" : [
        {
            "name" : "Scene",
            "nodes" : [
                0,
                1
            ]
        }
    ],
    "nodes" : [
        {
            "mesh" : 0,
            "name" : "Curve",
            "rotation" : [
                0.7071067690849304,
                0,
                0,
                0.7071067690849304
            ],
            "scale" : [
                4.555082321166992,
                4.555082321166992,
                4.555082321166992
            ],
            "translation" : [
                0,
                0.4638110399246216,
                -0.0034899869933724403
            ]
        },
        {
            "mesh" : 1,
            "name" : "Curve.001",
            "rotation" : [
                0.7071067690849304,
                0,
                0,
                0.7071067690849304
            ],
            "scale" : [
                4.555082321166992,
                4.555082321166992,
                4.555082321166992
            ],
            "translation" : [
                0,
                0.4403347671031952,
                -0.0034899869933724403
            ]
        }
    ],
    "materials" : [
        {
            "doubleSided" : true,
            "name" : "Material",
            "pbrMetallicRoughness" : {
                "baseColorFactor" : [
                    0,
                    0,
                    0,
                    0.699999988079071
                ],
                "metallicFactor" : 0,
                "roughnessFactor" : 0.4000000059604645
            }
        }
    ],
    "meshes" : [
        {
            "name" : "Curve",
            "primitives" : [
                {
                    "attributes" : {
                        "POSITION" : 0,
                        "NORMAL" : 1
                    },
                    "indices" : 2,
                    "material" : 0
                }
            ]
        },
        {
            "name" : "Curve.001",
            "primitives" : [
                {
                    "attributes" : {
                        "POSITION" : 3,
                        "NORMAL" : 4
                    },
                    "indices" : 5,
                    "material" : 0
                }
            ]
        }
    ],
    "accessors" : [
        {
            "bufferView" : 0,
            "componentType" : 5126,
            "count" : 3230,
            "max" : [
                0.02385830134153366,
                0.007049858570098877,
                0.039926573634147644
            ],
            "min" : [
                -0.02511926367878914,
                0,
                -0.02550940401852131
            ],
            "type" : "VEC3"
        },
        {
            "bufferView" : 1,
            "componentType" : 5126,
            "count" : 3230,
            "type" : "VEC3"
        },
        {
            "bufferView" : 2,
            "componentType" : 5123,
            "count" : 6372,
            "type" : "SCALAR"
        },
        {
            "bufferView" : 3,
            "componentType" : 5126,
            "count" : 646,
            "max" : [
                0.0478847399353981,
                0.007049858570098877,
                0.047874465584754944
            ],
            "min" : [
                -0.04788453131914139,
                0,
                -0.0478745773434639
            ],
            "type" : "VEC3"
        },
        {
            "bufferView" : 4,
            "componentType" : 5126,
            "count" : 646,
            "type" : "VEC3"
        },
        {
            "bufferView" : 5,
            "componentType" : 5123,
            "count" : 1152,
            "type" : "SCALAR"
        }
    ],
    "bufferViews" : [
        {
            "buffer" : 0,
            "byteLength" : 38760,
            "byteOffset" : 0
        },
        {
            "buffer" : 0,
            "byteLength" : 38760,
            "byteOffset" : 38760
        },
        {
            "buffer" : 0,
            "byteLength" : 12744,
            "byteOffset" : 77520
        },
        {
            "buffer" : 0,
            "byteLength" : 7752,
            "byteOffset" : 90264
        },
        {
            "buffer" : 0,
            "byteLength" : 7752,
            "byteOffset" : 98016
        },
        {
            "buffer" : 0,
            "byteLength" : 2304,
            "byteOffset" : 105768
        }
    ],
    "buffers" : [
        {
            "byteLength" : 108072,
            "uri" : "dogParkTrash.bin"
        }
    ]
}
