{
    "asset" : {
        "generator" : "Khronos glTF Blender I/O v0.9.36",
        "version" : "2.0"
    },
    "scene" : 0,
    "scenes" : [
        {
            "name" : "Scene",
            "nodes" : [
                0,
                1,
                2
            ]
        }
    ],
    "nodes" : [
        {
            "mesh" : 0,
            "name" : "Curve.013",
            "rotation" : [
                0.7071067690849304,
                0,
                0,
                0.7071067690849304
            ],
            "scale" : [
                4.102139472961426,
                4.102139472961426,
                4.102139472961426
            ],
            "translation" : [
                0.006562346126884222,
                0.3855876326560974,
                -0.019157100468873978
            ]
        },
        {
            "mesh" : 1,
            "name" : "Curve.014",
            "rotation" : [
                0.7071067690849304,
                0,
                0,
                0.7071067690849304
            ],
            "scale" : [
                4.102139472961426,
                4.102139472961426,
                4.102139472961426
            ],
            "translation" : [
                -0.05496123433113098,
                0.37655091285705566,
                -0.019157100468873978
            ]
        },
        {
            "mesh" : 2,
            "name" : "Curve.015",
            "rotation" : [
                0.7071067690849304,
                0,
                0,
                0.7071067690849304
            ],
            "scale" : [
                4.102139472961426,
                4.102139472961426,
                4.102139472961426
            ],
            "translation" : [
                0.06693074107170105,
                0.37655091285705566,
                -0.019157100468873978
            ]
        }
    ],
    "materials" : [
        {
            "doubleSided" : true,
            "name" : "Material",
            "pbrMetallicRoughness" : {
                "baseColorFactor" : [
                    0.9822508692741394,
                    0.005605285055935383,
                    0.0030352864414453506,
                    0.699999988079071
                ],
                "metallicFactor" : 0,
                "roughnessFactor" : 0.4000000059604645
            }
        }
    ],
    "meshes" : [
        {
            "name" : "Curve.011",
            "primitives" : [
                {
                    "attributes" : {
                        "POSITION" : 0,
                        "NORMAL" : 1
                    },
                    "indices" : 2,
                    "material" : 0
                }
            ]
        },
        {
            "name" : "Curve.012",
            "primitives" : [
                {
                    "attributes" : {
                        "POSITION" : 3,
                        "NORMAL" : 4
                    },
                    "indices" : 5,
                    "material" : 0
                }
            ]
        },
        {
            "name" : "Curve.013",
            "primitives" : [
                {
                    "attributes" : {
                        "POSITION" : 6,
                        "NORMAL" : 7
                    },
                    "indices" : 8,
                    "material" : 0
                }
            ]
        }
    ],
    "accessors" : [
        {
            "bufferView" : 0,
            "componentType" : 5126,
            "count" : 691,
            "max" : [
                0.0478847473859787,
                0.01010214351117611,
                0.04787445813417435
            ],
            "min" : [
                -0.04788452386856079,
                -0.0015537617728114128,
                -0.047874584794044495
            ],
            "type" : "VEC3"
        },
        {
            "bufferView" : 1,
            "componentType" : 5126,
            "count" : 691,
            "type" : "VEC3"
        },
        {
            "bufferView" : 2,
            "componentType" : 5123,
            "count" : 1152,
            "type" : "SCALAR"
        },
        {
            "bufferView" : 3,
            "componentType" : 5126,
            "count" : 262,
            "max" : [
                0.01277986541390419,
                0.01010214351117611,
                0.021981239318847656
            ],
            "min" : [
                -0.01068456843495369,
                -0.0015537613071501255,
                -0.026240214705467224
            ],
            "type" : "VEC3"
        },
        {
            "bufferView" : 4,
            "componentType" : 5126,
            "count" : 262,
            "type" : "VEC3"
        },
        {
            "bufferView" : 5,
            "componentType" : 5123,
            "count" : 372,
            "type" : "SCALAR"
        },
        {
            "bufferView" : 6,
            "componentType" : 5126,
            "count" : 248,
            "max" : [
                0.010684452950954437,
                0.01010214351117611,
                0.021981239318847656
            ],
            "min" : [
                -0.012779414653778076,
                -0.0015537613071501255,
                -0.026240214705467224
            ],
            "type" : "VEC3"
        },
        {
            "bufferView" : 7,
            "componentType" : 5126,
            "count" : 248,
            "type" : "VEC3"
        },
        {
            "bufferView" : 8,
            "componentType" : 5123,
            "count" : 372,
            "type" : "SCALAR"
        }
    ],
    "bufferViews" : [
        {
            "buffer" : 0,
            "byteLength" : 8292,
            "byteOffset" : 0
        },
        {
            "buffer" : 0,
            "byteLength" : 8292,
            "byteOffset" : 8292
        },
        {
            "buffer" : 0,
            "byteLength" : 2304,
            "byteOffset" : 16584
        },
        {
            "buffer" : 0,
            "byteLength" : 3144,
            "byteOffset" : 18888
        },
        {
            "buffer" : 0,
            "byteLength" : 3144,
            "byteOffset" : 22032
        },
        {
            "buffer" : 0,
            "byteLength" : 744,
            "byteOffset" : 25176
        },
        {
            "buffer" : 0,
            "byteLength" : 2976,
            "byteOffset" : 25920
        },
        {
            "buffer" : 0,
            "byteLength" : 2976,
            "byteOffset" : 28896
        },
        {
            "buffer" : 0,
            "byteLength" : 744,
            "byteOffset" : 31872
        }
    ],
    "buffers" : [
        {
            "byteLength" : 32616,
            "uri" : "dogParkGate.bin"
        }
    ]
}
