{
    "asset" : {
        "generator" : "Khronos glTF Blender I/O v0.9.36",
        "version" : "2.0"
    },
    "scene" : 0,
    "scenes" : [
        {
            "name" : "Scene",
            "nodes" : [
                0,
                1
            ]
        }
    ],
    "nodes" : [
        {
            "mesh" : 0,
            "name" : "Curve.002",
            "rotation" : [
                0.7071067690849304,
                0,
                0,
                0.7071067690849304
            ],
            "scale" : [
                4.158592700958252,
                4.158592700958252,
                4.158592700958252
            ],
            "translation" : [
                0.006917327642440796,
                0.3830564022064209,
                -0.00256454199552536
            ]
        },
        {
            "mesh" : 1,
            "name" : "Curve.003",
            "rotation" : [
                0.7071067690849304,
                0,
                0,
                0.7071067690849304
            ],
            "scale" : [
                4.158592700958252,
                4.158592700958252,
                4.158592700958252
            ],
            "translation" : [
                0.005794314667582512,
                0.35168182849884033,
                -0.00256454199552536
            ]
        }
    ],
    "materials" : [
        {
            "doubleSided" : true,
            "name" : "Material",
            "pbrMetallicRoughness" : {
                "baseColorFactor" : [
                    0.9822508692741394,
                    0.16202932596206665,
                    0.00030354782938957214,
                    0.699999988079071
                ],
                "metallicFactor" : 0,
                "roughnessFactor" : 0.4000000059604645
            }
        }
    ],
    "meshes" : [
        {
            "name" : "Curve.002",
            "primitives" : [
                {
                    "attributes" : {
                        "POSITION" : 0,
                        "NORMAL" : 1
                    },
                    "indices" : 2,
                    "material" : 0
                }
            ]
        },
        {
            "name" : "Curve.003",
            "primitives" : [
                {
                    "attributes" : {
                        "POSITION" : 3,
                        "NORMAL" : 4
                    },
                    "indices" : 5,
                    "material" : 0
                }
            ]
        }
    ],
    "accessors" : [
        {
            "bufferView" : 0,
            "componentType" : 5126,
            "count" : 646,
            "max" : [
                0.0478847399353981,
                0.012172349728643894,
                0.047874465584754944
            ],
            "min" : [
                -0.04788453131914139,
                0,
                -0.0478745773434639
            ],
            "type" : "VEC3"
        },
        {
            "bufferView" : 1,
            "componentType" : 5126,
            "count" : 646,
            "type" : "VEC3"
        },
        {
            "bufferView" : 2,
            "componentType" : 5123,
            "count" : 1152,
            "type" : "SCALAR"
        },
        {
            "bufferView" : 3,
            "componentType" : 5126,
            "count" : 72,
            "max" : [
                0.028963565826416016,
                0.012172349728643894,
                0.013140194118022919
            ],
            "min" : [
                -0.028422698378562927,
                0,
                -0.034316301345825195
            ],
            "type" : "VEC3"
        },
        {
            "bufferView" : 4,
            "componentType" : 5126,
            "count" : 72,
            "type" : "VEC3"
        },
        {
            "bufferView" : 5,
            "componentType" : 5123,
            "count" : 132,
            "type" : "SCALAR"
        }
    ],
    "bufferViews" : [
        {
            "buffer" : 0,
            "byteLength" : 7752,
            "byteOffset" : 0
        },
        {
            "buffer" : 0,
            "byteLength" : 7752,
            "byteOffset" : 7752
        },
        {
            "buffer" : 0,
            "byteLength" : 2304,
            "byteOffset" : 15504
        },
        {
            "buffer" : 0,
            "byteLength" : 864,
            "byteOffset" : 17808
        },
        {
            "buffer" : 0,
            "byteLength" : 864,
            "byteOffset" : 18672
        },
        {
            "buffer" : 0,
            "byteLength" : 264,
            "byteOffset" : 19536
        }
    ],
    "buffers" : [
        {
            "byteLength" : 19800,
            "uri" : "dogParkShelter.bin"
        }
    ]
}
