{
    "asset" : {
        "generator" : "Khronos glTF Blender I/O v0.9.36",
        "version" : "2.0"
    },
    "scene" : 0,
    "scenes" : [
        {
            "name" : "Scene",
            "nodes" : [
                0,
                1,
                2,
                3,
                4,
                5,
                6,
                7
            ]
        }
    ],
    "nodes" : [
        {
            "name" : "Light",
            "rotation" : [
                0.16907575726509094,
                0.7558803558349609,
                -0.27217137813568115,
                0.570947527885437
            ],
            "translation" : [
                4.076245307922363,
                5.903861999511719,
                -1.0054539442062378
            ]
        },
        {
            "name" : "Camera",
            "rotation" : [
                0.483536034822464,
                0.33687159419059753,
                -0.20870360732078552,
                0.7804827094078064
            ],
            "translation" : [
                7.358891487121582,
                4.958309173583984,
                6.925790786743164
            ]
        },
        {
            "mesh" : 0,
            "name" : "Curve",
            "rotation" : [
                0.7071067690849304,
                0,
                0,
                0.7071067690849304
            ],
            "scale" : [
                1.5,
                1.5,
                1.5
            ],
            "translation" : [
                -0.02201676368713379,
                0.18176664412021637,
                0.013450335711240768
            ]
        },
        {
            "mesh" : 1,
            "name" : "Curve.001",
            "rotation" : [
                0.7071067690849304,
                0,
                0,
                0.7071067690849304
            ],
            "scale" : [
                1.5,
                1.5,
                1.5
            ],
            "translation" : [
                0.01891866885125637,
                0.18306589126586914,
                0.013450335711240768
            ]
        },
        {
            "mesh" : 2,
            "name" : "Curve.002",
            "rotation" : [
                0.7071067690849304,
                0,
                0,
                0.7071067690849304
            ],
            "scale" : [
                1.5,
                1.5,
                1.5
            ],
            "translation" : [
                -0.05978303775191307,
                0.14390990138053894,
                0.013450334779918194
            ]
        },
        {
            "mesh" : 3,
            "name" : "Curve.003",
            "rotation" : [
                0.7071067690849304,
                0,
                0,
                0.7071067690849304
            ],
            "scale" : [
                1.5,
                1.5,
                1.5
            ],
            "translation" : [
                0.05872557684779167,
                0.1440814733505249,
                0.013450334779918194
            ]
        },
        {
            "mesh" : 4,
            "name" : "Curve.004",
            "rotation" : [
                0.7071067690849304,
                0,
                0,
                0.7071067690849304
            ],
            "scale" : [
                1.5,
                1.5,
                1.5
            ],
            "translation" : [
                0.008285555057227612,
                0.10161971300840378,
                0.01345033198595047
            ]
        },
        {
            "mesh" : 5,
            "name" : "Curve.005",
            "rotation" : [
                0.7071067690849304,
                0,
                0,
                0.7071067690849304
            ],
            "scale" : [
                1.5,
                1.5,
                1.5
            ],
            "translation" : [
                -0.004235667642205954,
                0.0895620584487915,
                0.01345033198595047
            ]
        }
    ],
    "materials" : [
        {
            "doubleSided" : true,
            "name" : "Material",
            "pbrMetallicRoughness" : {
                "baseColorFactor" : [
                    0.35153281688690186,
                    0.011612199246883392,
                    0.8879231810569763,
                    1
                ],
                "metallicFactor" : 0,
                "roughnessFactor" : 0.4000000059604645
            }
        }
    ],
    "meshes" : [
        {
            "name" : "Curve",
            "primitives" : [
                {
                    "attributes" : {
                        "POSITION" : 0,
                        "NORMAL" : 1
                    },
                    "indices" : 2,
                    "material" : 0
                }
            ]
        },
        {
            "name" : "Curve.001",
            "primitives" : [
                {
                    "attributes" : {
                        "POSITION" : 3,
                        "NORMAL" : 4
                    },
                    "indices" : 5,
                    "material" : 0
                }
            ]
        },
        {
            "name" : "Curve.002",
            "primitives" : [
                {
                    "attributes" : {
                        "POSITION" : 6,
                        "NORMAL" : 7
                    },
                    "indices" : 8,
                    "material" : 0
                }
            ]
        },
        {
            "name" : "Curve.003",
            "primitives" : [
                {
                    "attributes" : {
                        "POSITION" : 9,
                        "NORMAL" : 10
                    },
                    "indices" : 11,
                    "material" : 0
                }
            ]
        },
        {
            "name" : "Curve.004",
            "primitives" : [
                {
                    "attributes" : {
                        "POSITION" : 12,
                        "NORMAL" : 13
                    },
                    "indices" : 14,
                    "material" : 0
                }
            ]
        },
        {
            "name" : "Curve.005",
            "primitives" : [
                {
                    "attributes" : {
                        "POSITION" : 15,
                        "NORMAL" : 16
                    },
                    "indices" : 17,
                    "material" : 0
                }
            ]
        }
    ],
    "accessors" : [
        {
            "bufferView" : 0,
            "componentType" : 5126,
            "count" : 734,
            "max" : [
                0.010738011449575424,
                0,
                0.02287350967526436
            ],
            "min" : [
                -0.01761452481150627,
                -0.016940508037805557,
                -0.02058091200888157
            ],
            "type" : "VEC3"
        },
        {
            "bufferView" : 1,
            "componentType" : 5126,
            "count" : 734,
            "type" : "VEC3"
        },
        {
            "bufferView" : 2,
            "componentType" : 5123,
            "count" : 1284,
            "type" : "SCALAR"
        },
        {
            "bufferView" : 3,
            "componentType" : 5126,
            "count" : 700,
            "max" : [
                0.01765524595975876,
                0,
                0.023722263053059578
            ],
            "min" : [
                -0.010794542729854584,
                -0.016940508037805557,
                -0.01971784606575966
            ],
            "type" : "VEC3"
        },
        {
            "bufferView" : 4,
            "componentType" : 5126,
            "count" : 700,
            "type" : "VEC3"
        },
        {
            "bufferView" : 5,
            "componentType" : 5123,
            "count" : 1284,
            "type" : "SCALAR"
        },
        {
            "bufferView" : 6,
            "componentType" : 5126,
            "count" : 857,
            "max" : [
                0.011656627058982849,
                0,
                0.021279390901327133
            ],
            "min" : [
                -0.01465529203414917,
                -0.016940508037805557,
                -0.019125638529658318
            ],
            "type" : "VEC3"
        },
        {
            "bufferView" : 7,
            "componentType" : 5126,
            "count" : 857,
            "type" : "VEC3"
        },
        {
            "bufferView" : 8,
            "componentType" : 5123,
            "count" : 1572,
            "type" : "SCALAR"
        },
        {
            "bufferView" : 9,
            "componentType" : 5126,
            "count" : 777,
            "max" : [
                0.013260168954730034,
                0,
                0.021403729915618896
            ],
            "min" : [
                -0.013074137270450592,
                -0.016940508037805557,
                -0.01899648644030094
            ],
            "type" : "VEC3"
        },
        {
            "bufferView" : 10,
            "componentType" : 5126,
            "count" : 777,
            "type" : "VEC3"
        },
        {
            "bufferView" : 11,
            "componentType" : 5123,
            "count" : 1428,
            "type" : "SCALAR"
        },
        {
            "bufferView" : 12,
            "componentType" : 5126,
            "count" : 1237,
            "max" : [
                0.010171912610530853,
                0,
                0.006055296398699284
            ],
            "min" : [
                -0.008168667554855347,
                -0.016940508037805557,
                -0.007935740053653717
            ],
            "type" : "VEC3"
        },
        {
            "bufferView" : 13,
            "componentType" : 5126,
            "count" : 1237,
            "type" : "VEC3"
        },
        {
            "bufferView" : 14,
            "componentType" : 5123,
            "count" : 2172,
            "type" : "SCALAR"
        },
        {
            "bufferView" : 15,
            "componentType" : 5126,
            "count" : 3625,
            "max" : [
                0.03082454204559326,
                0,
                0.04601200670003891
            ],
            "min" : [
                -0.026562944054603577,
                -0.016940508037805557,
                -0.03891393542289734
            ],
            "type" : "VEC3"
        },
        {
            "bufferView" : 16,
            "componentType" : 5126,
            "count" : 3625,
            "type" : "VEC3"
        },
        {
            "bufferView" : 17,
            "componentType" : 5123,
            "count" : 6624,
            "type" : "SCALAR"
        }
    ],
    "bufferViews" : [
        {
            "buffer" : 0,
            "byteLength" : 8808,
            "byteOffset" : 0
        },
        {
            "buffer" : 0,
            "byteLength" : 8808,
            "byteOffset" : 8808
        },
        {
            "buffer" : 0,
            "byteLength" : 2568,
            "byteOffset" : 17616
        },
        {
            "buffer" : 0,
            "byteLength" : 8400,
            "byteOffset" : 20184
        },
        {
            "buffer" : 0,
            "byteLength" : 8400,
            "byteOffset" : 28584
        },
        {
            "buffer" : 0,
            "byteLength" : 2568,
            "byteOffset" : 36984
        },
        {
            "buffer" : 0,
            "byteLength" : 10284,
            "byteOffset" : 39552
        },
        {
            "buffer" : 0,
            "byteLength" : 10284,
            "byteOffset" : 49836
        },
        {
            "buffer" : 0,
            "byteLength" : 3144,
            "byteOffset" : 60120
        },
        {
            "buffer" : 0,
            "byteLength" : 9324,
            "byteOffset" : 63264
        },
        {
            "buffer" : 0,
            "byteLength" : 9324,
            "byteOffset" : 72588
        },
        {
            "buffer" : 0,
            "byteLength" : 2856,
            "byteOffset" : 81912
        },
        {
            "buffer" : 0,
            "byteLength" : 14844,
            "byteOffset" : 84768
        },
        {
            "buffer" : 0,
            "byteLength" : 14844,
            "byteOffset" : 99612
        },
        {
            "buffer" : 0,
            "byteLength" : 4344,
            "byteOffset" : 114456
        },
        {
            "buffer" : 0,
            "byteLength" : 43500,
            "byteOffset" : 118800
        },
        {
            "buffer" : 0,
            "byteLength" : 43500,
            "byteOffset" : 162300
        },
        {
            "buffer" : 0,
            "byteLength" : 13248,
            "byteOffset" : 205800
        }
    ],
    "buffers" : [
        {
            "byteLength" : 219048,
            "uri" : "DogParkParking.bin"
        }
    ]
}
