{
    "asset" : {
        "generator" : "Khronos glTF Blender I/O v0.9.36",
        "version" : "2.0"
    },
    "scene" : 0,
    "scenes" : [
        {
            "name" : "Scene",
            "nodes" : [
                0,
                1
            ]
        }
    ],
    "nodes" : [
        {
            "mesh" : 0,
            "name" : "Curve",
            "rotation" : [
                0.7071067690849304,
                0,
                0,
                0.7071067690849304
            ],
            "scale" : [
                2.899115562438965,
                2.899115562438965,
                2.899115562438965
            ],
            "translation" : [
                0.0064582303166389465,
                0.38196855783462524,
                0.0008981767459772527
            ]
        },
        {
            "mesh" : 1,
            "name" : "Curve.001",
            "rotation" : [
                0.7071067690849304,
                0,
                0,
                0.7071067690849304
            ],
            "scale" : [
                2.899115562438965,
                2.899115562438965,
                2.899115562438965
            ],
            "translation" : [
                -0.026158519089221954,
                0.33978986740112305,
                0.0008981731371022761
            ]
        }
    ],
    "materials" : [
        {
            "doubleSided" : true,
            "name" : "Material",
            "pbrMetallicRoughness" : {
                "baseColorFactor" : [
                    0.006995260715484619,
                    0.7681514024734497,
                    0.9822506904602051,
                    0.699999988079071
                ],
                "metallicFactor" : 0,
                "roughnessFactor" : 0.4000000059604645
            }
        }
    ],
    "meshes" : [
        {
            "name" : "Curve",
            "primitives" : [
                {
                    "attributes" : {
                        "POSITION" : 0,
                        "NORMAL" : 1
                    },
                    "indices" : 2,
                    "material" : 0
                }
            ]
        },
        {
            "name" : "Curve.001",
            "primitives" : [
                {
                    "attributes" : {
                        "POSITION" : 3,
                        "NORMAL" : 4
                    },
                    "indices" : 5,
                    "material" : 0
                }
            ]
        }
    ],
    "accessors" : [
        {
            "bufferView" : 0,
            "componentType" : 5126,
            "count" : 664,
            "max" : [
                0.06820511817932129,
                0.0053833723068237305,
                0.06819048523902893
            ],
            "min" : [
                -0.06820470094680786,
                -0.0053833723068237305,
                -0.0681908056139946
            ],
            "type" : "VEC3"
        },
        {
            "bufferView" : 1,
            "componentType" : 5126,
            "count" : 664,
            "type" : "VEC3"
        },
        {
            "bufferView" : 2,
            "componentType" : 5123,
            "count" : 1152,
            "type" : "SCALAR"
        },
        {
            "bufferView" : 3,
            "componentType" : 5126,
            "count" : 1684,
            "max" : [
                0.06052836775779724,
                0.005383372772485018,
                0.034719422459602356
            ],
            "min" : [
                -0.038027625530958176,
                -0.005383371841162443,
                -0.036386169493198395
            ],
            "type" : "VEC3"
        },
        {
            "bufferView" : 4,
            "componentType" : 5126,
            "count" : 1684,
            "type" : "VEC3"
        },
        {
            "bufferView" : 5,
            "componentType" : 5123,
            "count" : 3048,
            "type" : "SCALAR"
        }
    ],
    "bufferViews" : [
        {
            "buffer" : 0,
            "byteLength" : 7968,
            "byteOffset" : 0
        },
        {
            "buffer" : 0,
            "byteLength" : 7968,
            "byteOffset" : 7968
        },
        {
            "buffer" : 0,
            "byteLength" : 2304,
            "byteOffset" : 15936
        },
        {
            "buffer" : 0,
            "byteLength" : 20208,
            "byteOffset" : 18240
        },
        {
            "buffer" : 0,
            "byteLength" : 20208,
            "byteOffset" : 38448
        },
        {
            "buffer" : 0,
            "byteLength" : 6096,
            "byteOffset" : 58656
        }
    ],
    "buffers" : [
        {
            "byteLength" : 64752,
            "uri" : "dogParkWaterFeature.bin"
        }
    ]
}
